<?xml version="1.0" encoding="UTF-8" standalone="no"?>
<!-- Created with Inkscape (http://www.inkscape.org/) -->

<svg
   xmlns:svg="http://www.w3.org/2000/svg"
   xmlns="http://www.w3.org/2000/svg"
   version="1.0"
   width="577.81pt"
   height="151pt"
   id="svg1487"
   style="display:inline">
  <defs
     id="defs3" />
  <g
     id="layer2"
     style="display:inline">
    <text
       x="20.50548"
       y="237.45724"
       id="text3189"
       xml:space="preserve"
       style="font-size:48px;font-style:normal;font-variant:normal;font-weight:normal;font-stretch:normal;text-align:start;line-height:125%;writing-mode:lr-tb;text-anchor:start;fill:#ffffff;fill-opacity:1;stroke:none;font-family:DejaVu Sans Mono;-inkscape-font-specification:DejaVu Sans Mono"><tspan
         x="20.50548"
         y="237.45724"
         id="tspan3191">www.munin-monitoring.org</tspan></text>
  </g>
  <g
     id="layer1"
     style="display:inline">
    <path
       d="m 186.28371,0 26.02771,0 34.79055,99.10784 0.53278,0 L 282.16221,0 l 26.29472,0 0,187.1699 -27.09096,0 0,-113.82421 -0.53279,0 -26.82398,80.44291 -13.54474,0 -26.56164,-80.44291 -0.53318,0 0,113.82421 -27.09056,0 0,-187.1699"
       id="path1495"
       style="fill:#ffffff;fill-opacity:1;stroke:none" />
    <path
       d="m 424.00186,145.1112 c 0,24.4486 -19.65331,43.6388 -43.82268,43.6388 -24.16977,0 -43.82772,-19.1902 -43.82772,-43.6388 l 0,-145.1112 27.09445,0 0,142.484 c 0,13.1438 7.17067,19.4529 16.73211,19.4529 9.55796,0 16.73211,-6.3091 16.73211,-19.4529 l 0,-142.484 27.09096,0 0,145.1112"
       id="path1497"
       style="fill:#ffffff;fill-opacity:1;stroke:none" />
    <path
       d="m 450.83049,0 26.02422,0 40.90418,112.77324 0.52931,0 0,-112.77324 27.09482,0 0,187.1699 -25.49919,0 -41.43693,-112.51062 -0.52931,0 0,112.51062 -27.09057,0 0,-187.1699"
       id="path1499"
       style="fill:#ffffff;fill-opacity:1;stroke:none" />
    <path
       d="m 573.00328,187.1699 27.09483,0 0,-187.1699 -27.09483,0 0,187.1699 z"
       id="path1501"
       style="fill:#ffffff;fill-opacity:1;stroke:none" />
    <path
       d="m 627.72224,0 26.03234,0 40.89918,112.77324 0.53318,0 0,-112.77324 27.08708,0 0,187.1699 -25.49535,0 -41.43617,-112.51062 -0.53317,0 0,112.51062 -27.08709,0 0,-187.1699"
       id="path1503"
       style="fill:#ffffff;fill-opacity:1;stroke:none" />
    <path
       d="m 157.17279,167.28866 0,-0.71001 -1.395,0 -1.16301,0.91401 0,-0.50801 -1.39401,0 0,-3.86206 -1.16101,0 0,-3.55605 -0.698,0 0,-0.71101 -1.16301,0 0,4.47107 -1.625,0 0,3.45505 -1.74402,0 0,-1.06902 -0.928,0.40801 -1.278,0.55901 -0.93,0 0,1.62502 -1.85902,0 0,-1.31802 0,-2.03503 0,-2.44003 -1.394,0 0,-1.01602 -1.39601,0 0,-4.57407 -1.39301,0 0,4.57407 -0.69701,0.305 0,5.33608 -1.27699,0 -1.27801,0.56101 -1.39601,0 -1.16201,-0.508 -2.09101,0 0,-1.22102 -1.396,0 0,1.93203 -1.16001,0 0,1.32002 -0.93301,0 0,0.86301 -2.08701,0 0.004,0.002 0,-0.56001 -0.934,0 0,-7.31711 -0.92801,0 0,-4.98007 -0.582,-0.25401 0,-3.30305 -1.046,0 0,7.82612 -0.93101,0 0,7.92812 -0.92601,0 0,0.66001 -1.15899,0 0,-0.66001 -0.93402,0 0,-4.16806 -0.697,0 0,-4.87908 -0.697,0 0,-15.44323 -0.46501,0 0,-7.21311 -1.162,0 0,9.85215 -0.92901,0 0,20.0213 -0.698,0.30701 0,1.52302 -0.927,0 0,-1.42402 -0.466,0 0,-2.64004 -1.16201,0 0,-1.62703 -0.931,0 0,3.04905 -0.69501,0 0,0.81201 -0.93001,0 0,-1.52302 -1.161,0 0,1.72602 -1.62701,0 0,1.72703 -1.39401,0 0,-4.67407 -0.583,-0.254 0,-5.02908 -1.74,0 0,4.16606 -1.163815,0.50801 0,5.84309 -0.693904,0 0,-17.53126 0,-8.23213 -0.699003,0 0,-10.05515 -0.696704,0 0,8.53113 -0.930905,0 0,17.78327 -0.695803,0 0,0.91601 -0.696804,0 0,4.67407 0,2.64304 -0.930905,0 0,-2.54104 -1.160905,0 0,-3.86206 0,-7.92512 -1.394807,0 0,-10.46715 -0.580804,-0.25401 0,6.6541 -1.742908,0 0,4.16607 0,7.72511 -0.698003,0 0,2.23604 -0.929005,0.407 0,3.96206 0,1.17002 -1.157905,0 0,-5.64009 -0.700004,0 0,-10.06315 0,-5.18107 -0.698003,0 0,12.19518 -1.159907,0 0,6.5041 -0.695803,0.306 0,-1.32202 -1.627909,0 0,0.81301 -0.930004,0 0,1.82803 -0.696703,0 0,-1.93003 -0.930905,0 0,-1.72802 -1.160906,0 0,0.91601 -0.350902,-0.155 0,1.47502 -0.986805,0.43201 0,1.09301 -1.130806,0.49401 0,-1.71403 -1.482907,0 0,-1.21901 -0.699003,0 0,-1.62703 -1.392807,0 0,-1.62702 -0.698004,0 0,-2.64104 -1.160906,0 0,-5.89409 -1.161905,0 0,7.72211 -1.161906,0 0,2.44004 -0.928905,0.40601 0,3.04904 -0.696803,0 0,1.06802 -0.926705,0 0,-6.04709 -0.700004,-0.30601 0,-6.19709 -1.161905,0 0,-6.6081 -0.698904,0 0,-17.04125 -1.160906,0 0,14.19521 -0.699003,0 0,10.77416 -0.929005,0 0,0.81201 -0.928904,0 0,4.47307 -1.393807,0 0,5.38508 0,0.56001 -1.159907,0 0,-0.96502 -1.164805,0 0,-0.81401 -1.160907,0 0,-2.03303 -1.626007,0 0,-10.06115 -1.162806,0 0,-12.60119 -1.393807,0 0,10.67016 -0.930005,0 0,-1.82803 -1.160806,0 0,-9.24913 -0.582802,-0.25301 0,-5.91509 -1.044006,0 0,8.20213 -1.161805,0 0,9.34714 -0.930005,0 0,6.6081 -0.928905,0 0,5.89408 -0.465802,0 0,-2.33803 -1.394807,0 0,3.04904 -1.627009,0 0,-1.83002 -1.160805,0 0,3.45705 -1.393807,0 0,-2.33804 -1.393807,0 0,0.91402 -1.161906,0 0,1.42402 -1.161906,0 0,0.66001 -1.391807,0 0,-1.77903 -1.629908,0 0,1.77903 -2.08791,0 0,-0.76301 -1.164807,0 0,0.76301 -2.08791,0 0,-0.86501 -0.933804,0 0,-1.32002 -1.160907,0 0,-1.93203 -1.394806,0 0,1.22102"
       id="path1493"
       style="fill:none;stroke:#33ff00;stroke-width:5.6692915;stroke-linecap:round;stroke-linejoin:round;stroke-miterlimit:4;stroke-dasharray:none" />
    <path
       d="m 20.6738,186.09538 0,-49.07278"
       id="path1505"
       style="fill:none;stroke:#ffffff;stroke-width:5.6692915;stroke-linecap:round;stroke-linejoin:round;stroke-miterlimit:4;stroke-opacity:1;stroke-dasharray:none" />
    <path
       d="m 20.673816,85.401045 0,-84.98218412 137.380864,0 0,185.67650912"
       id="path1507"
       style="fill:none;stroke:#ffffff;stroke-width:5.6692915;stroke-linecap:round;stroke-linejoin:round;stroke-miterlimit:4;stroke-opacity:1;stroke-dasharray:none" />
    <path
       d="m 20.685718,186.08346 136.899462,0"
       id="path1506"
       style="fill:none;stroke:#ffffff;stroke-width:5.6692915;stroke-linecap:round;stroke-linejoin:round;stroke-miterlimit:4;stroke-opacity:1;stroke-dasharray:none" />
  </g>
  <g
     id="layer5"
     style="display:inline">
    <path
       d="m 150.98661,4.673964 c -8.02702,2.00604 -16.1875,10.499999 -16.1875,10.499999 l -0.0312,-4.96875 -10.8125,8.1875 2.1875,-6.09375 -4.3125,2.90625 c -5.24602,3.110051 -11.1875,4.34375 -11.1875,4.34375 -9.00608,0.558 -21.875002,11.4375 -21.875002,11.4375 1.564,-4.02906 0.4375,-12.34375 0.4375,-12.34375 -7.924821,15.51224 -23.024691,22.49399 -25.187501,23.375 -2.16799,0.878021 -13.53705,6.0811 -23.875,15.53125 -10.33087,9.441138 -13.625,25.25 -13.625,25.25 -0.8269,2.963051 -8.51748,7.918427 -12.0625,12.562497 -1.62181,2.12104 -10.7282498,13.50404 -13.9062498,27.40625 -2.69091,11.80218 0.71875,23.1875 0.71875,23.1875 1e-5,0 0.60302,4.29486 3.875,-3.40625 l 1.34375,-0.28125 c -2e-5,0 -1.64796,3.60201 -0.625,3.25 1.02196,-0.34801 6.8766698,-6.67817 11.6874998,-12.03125 4.81403,-5.35908 21.23212,-18.51374 36,-19.46875 3e-5,1e-5 10.01237,-3.80809 17.4375,2 -10e-6,0 4.90181,6.06651 12.46875,5.3125 0,0 0.893591,-0.23478 3.312501,1.40625 l -0.15625,-3.15625 c -2e-5,0 8.69196,5.10506 17.812502,1.5 l -1.59375,-2.28125 c 2e-5,0 1.63572,-2.4293 6.46875,0.84375 l 0.28125,-2.125 c -1e-5,0 8.58898,4.55425 13,4.40625 l -1.21875,-3.875 c -1e-5,0 9.11495,-1.28774 18.125,-1.84375 -3e-5,1e-5 11.21896,-2.40088 18.625,5.78125 L 157.95536,4.986464 c -2.43202,3.644049 -8.53125,3.65625 -8.53125,3.65625 l 1.5625,-3.96875 z m -2.15625,11.781249 c 0.30768,-0.0019 0.59984,0.0032 0.90625,0.03125 0.61239,30.71488 0.19406,61.437788 0.34375,92.156247 -4.43767,-0.86814 -9.03202,-0.89682 -13.53125,-0.40625 -6.00069,1.63687 -12.43999,0.74844 -18.46875,2.25 -1.93045,2.93308 -3.79544,-0.0504 -6.03125,-0.90625 -5.19701,-0.65769 -12.400042,-0.0109 -15.468752,4.78125 -5.04423,0.0604 -11.05987,-6.69356 -16.000001,-1.84375 -3.45199,-0.50355 -6.65879,-4.85355 -10.4375,-6.09375 -15.2541,-4.13316 -31.47762,1.75445 -44.3125,10.03125 -7.08338,4.20124 -12.83599,9.99487 -17.9687498,16.21875 -0.52947,-12.30318 6.2764598,-25.89958 15.4999998,-34.84375 6.19405,-4.60439 10.81446,-11.100291 12.75,-18.718747 4.14068,-16.616159 20.84858,-24.344848 34.71875,-31.75 2.37116,-0.17373 5.98042,-5.949259 7.21875,-2.21875 4.82953,3.168169 9.366091,-3.210088 13.062501,-5.5625 6.33872,-6.698589 14.589632,-10.711729 23.343752,-13.125 1.85901,2.640213 5.98596,4.36193 9.25,2.21875 2.71412,-2.249268 1.69963,0.682747 2.09375,2.78125 0.3559,7.492393 5.29921,-2.088697 8.09375,-3.90625 4.67065,-3.574764 7.46396,-10.786316 14,-11.0625 0.30661,-0.02032 0.62982,-0.02932 0.9375,-0.03125 z"
       id="path2397"
       style="fill:#ffffff;fill-opacity:1;stroke:none;display:inline" />
  </g>
</svg>
