<?xml version="1.0" encoding="UTF-8" standalone="no"?>
<!-- Created with Inkscape (http://www.inkscape.org/) -->

<svg
   xmlns:svg="http://www.w3.org/2000/svg"
   xmlns="http://www.w3.org/2000/svg"
   version="1.0"
   width="1088.0355"
   height="1502.6995"
   id="svg3212">
  <defs
     id="defs3214" />
  <g
     transform="translate(237.31866,49.651983)"
     id="layer1">
    <path
       d="m 725.62855,915.82496 0,-4.08958 -8.03508,0 -6.69882,5.2646 0,-2.92608 -8.02935,0 0,-22.24509 -6.68732,0 0,-20.4825 -4.0204,0 0,-4.09535 -6.69884,0 0,25.75293 -9.35983,0 0,19.90075 -10.04539,0 0,-6.15745 -5.34517,2.35009 -7.36116,3.21984 -5.35672,0 0,9.35996 -10.70776,0 0,-7.59167 0,-11.72157 0,-14.05433 -8.02931,0 0,-5.85218 -8.04088,0 0,-26.34619 -8.02359,0 0,26.34619 -4.01473,1.75677 0,30.7353 -7.35533,0 -7.36121,3.23136 -8.04088,0 -6.69306,-2.92603 -12.04401,0 0,-7.03295 -8.04083,0 0,11.1283 -6.68154,0 0,7.60319 -5.37404,0 0,4.97085 -12.02097,0 0.023,0.0115 0,-3.2256 -5.37976,0 0,-42.14584 -5.34524,0 0,-28.68471 -3.35226,-1.46307 0,-19.02525 -6.02487,0 0,45.07768 -5.36252,0 0,45.6652 -5.33372,0 0,3.80159 -6.67566,0 0,-3.80159 -5.37987,0 0,-24.00762 -4.01466,0 0,-28.10302 -4.01465,0 0,-88.95148 -2.6784,0 0,-41.54681 -6.69302,0 0,56.74741 -5.351,0 0,115.32072 -4.02041,1.76835 0,8.77245 -5.33944,0 0,-8.20222 -2.6841,0 0,-15.20637 -6.69308,0 0,-9.37153 -5.36245,0 0,17.56222 -4.0032,0 0,4.6771 -5.35676,0 0,-8.77244 -6.68725,0 0,9.9417 -9.37142,0 0,9.94753 -8.02936,0 0,-26.92219 -3.35802,-1.46301 0,-28.96701 -10.02222,0 0,23.9961 -6.70347,2.92608 0,33.65563 -3.99682,0 0,-100.97833 0,-47.41626 -4.02617,0 0,-57.91668 -4.01297,0 0,49.13847 -5.36192,0 0,102.42989 -4.00774,0 0,5.27612 -4.01352,0 0,26.92219 0,15.22365 -5.36192,0 0,-14.63614 -6.68672,0 0,-22.24509 0,-45.64791 -8.03394,0 0,-60.28975 -3.34537,-1.46308 0,38.32697 -10.03899,0 0,23.99615 0,44.49587 -4.02042,0 0,12.87937 -5.35097,2.34428 0,22.82108 0,6.7392 -6.66942,0 0,-32.48637 -4.03196,0 0,-57.96275 0,-29.84245 -4.02044,0 0,70.24303 -6.68093,0 0,37.46298 -4.00777,1.76253 0,-7.6147 -9.37661,0 0,4.68285 -5.35681,0 0,10.52928 -4.01283,0 0,-11.11679 -5.36194,0 0,-9.95322 -6.68664,0 0,5.27612 -2.0213,-0.89278 0,8.49597 -5.6838,2.48833 0,6.29564 -6.51339,2.84544 0,-9.87264 -8.54133,0 0,-7.02138 -4.02633,0 0,-9.37153 -8.02224,0 0,-9.37148 -4.02055,0 0,-15.21213 -6.68663,0 0,-33.94937 -6.69242,0 0,44.47859 -6.69263,0 0,14.05439 -5.35037,2.33858 0,17.56217 -4.01348,0 0,6.15169 -5.33775,0 0,-34.83065 -4.03189,-1.76258 0,-35.69463 -6.69242,0 0,-38.06201 -4.02568,0 0,-98.15592 -6.68664,0 0,81.76301 -4.02632,0 0,62.0581 -5.35081,0 0,4.6771 -5.35059,0 0,25.76445 -8.02803,0 0,31.01753 0,3.2256 -6.68106,0 0,-5.55842 -6.70912,0 0,-4.68862 -6.68664,0 0,-11.71005 -9.36578,0 0,-57.95124 -6.69755,0 0,-72.58161 -8.02825,0 0,61.45907 -5.3568,0 0,-10.52927 -6.685987,0 0,-53.27408 -3.35691,-1.45731 0,-34.07034 -6.01337,0 0,47.24346 -6.69199,0 0,53.83861 -5.35658,0 0,38.062 -5.35038,0 0,33.94933 -2.68301,0 0,-13.46683 -8.03402,0 0,17.56217 -9.37135,0 0,-10.54073 -6.68621,0 0,19.91227 -8.02829,0 0,-13.46688 -8.028,0 0,5.26466 -6.6926,0 0,8.20222 -6.6924,0 0,3.80159 -8.0166998,0 0,-10.24704 -9.3881,0 0,10.24704 -12.0260002,0 0,-4.39486 -6.7094,0 0,4.39486 -12.0261,0 0,-4.98237 -5.3786,0 0,-7.60319 -6.6866,0 0,-11.1283 -8.0341,0 0,7.03295"
       id="path1493"
       style="fill:none;stroke:#33ff00;stroke-width:8.64561272;stroke-linecap:round;stroke-linejoin:round;stroke-miterlimit:4;stroke-dasharray:none;display:inline" />
    <path
       d="m -60.592257,1024.1498 0,-282.65436"
       id="path1505"
       style="fill:none;stroke:#ffffff;stroke-width:8.64655209;stroke-linecap:round;stroke-linejoin:round;stroke-opacity:1;display:inline" />
    <path
       d="m -60.592057,444.16036 0,-489.489025 791.300197,0 0,1069.478465"
       id="path1507"
       style="fill:none;stroke:#ffffff;stroke-width:8.64663601;stroke-linecap:round;stroke-linejoin:round;stroke-opacity:1;display:inline" />
    <path
       d="m -60.523557,1024.0812 788.527427,0"
       id="path1506"
       style="fill:none;stroke:#ffffff;stroke-width:8.78384972;stroke-linecap:round;stroke-linejoin:round;stroke-opacity:1;display:inline" />
    <path
       d="m 689.99675,-20.819665 c -46.23484,11.5546003 -93.23842,60.4789 -93.23842,60.4789 l -0.17999,-28.6195 -62.27892,47.1592 12.59978,-35.0994 -24.83959,16.7397 c -30.21656,17.9136 -64.43889,25.0196 -64.43889,25.0196 -51.87414,3.214 -125.99786,65.878905 -125.99786,65.878905 9.00849,-23.207 2.51996,-71.098805 2.51996,-71.098805 -45.64619,89.348975 -132.61996,129.563175 -145.07755,134.637715 -12.48735,5.0573 -77.97203,35.02652 -137.517647,89.45846 -59.5046798,54.38002 -78.47868,145.43751 -78.47868,145.43751 -4.7628,17.06688 -49.0599,45.60937 -69.4787,72.35876 -9.341603,12.21697 -61.793703,77.78193 -80.098703,157.85729 -15.4995,67.9794 4.1398,133.55772 4.1398,133.55772 3e-4,0 3.4735,24.73797 22.3198,-19.61966 l 7.7398,-1.61998 c 0,0 -9.4921,20.74723 -3.6,18.71968 5.8864,-2.0045 39.6091,-38.4656 67.318803,-69.29881 27.7284,-30.86778 122.29508,-106.63733 207.356557,-112.1381 2.1e-4,7e-5 57.67036,-21.93421 100.43826,11.51982 0,0 28.23397,34.9425 71.81881,30.59947 0,0 5.14701,-1.35231 19.07968,8.09987 l -0.89998,-18.17969 c -1.1e-4,0 50.06484,29.40464 102.59826,8.63985 l -9.17984,-13.13978 c 1.1e-4,0 9.42159,-13.99253 37.25936,4.85992 l 1.61997,-12.23979 c -6e-5,0 49.47169,26.23203 74.87873,25.37957 l -7.01988,-22.31963 c -7e-5,0 52.50122,-7.41724 104.39821,-10.6198 -1.8e-4,4e-5 64.62011,-13.82884 107.27818,33.29942 L 730.13605,-19.019765 C 716.12787,1.9696353 680.99689,2.0399353 680.99689,2.0399353 l 8.99986,-22.8596003 z m -12.4198,67.8588 c 1.77221,-0.0111 3.45504,0.0186 5.21993,0.18 3.5273,176.914695 1.11776,353.875625 1.97997,530.810925 -25.56055,-5.0004 -52.02355,-5.16559 -77.93867,-2.33995 -34.5634,9.42821 -71.65313,4.31093 -106.3782,12.95978 -11.1192,16.89424 -21.86134,-0.29053 -34.7394,-5.21992 -29.93426,-3.78822 -71.42301,-0.0627 -89.09849,27.53953 -29.05427,0.34789 -63.70375,-38.55424 -92.15842,-10.61981 -19.88323,-2.90041 -38.35397,-27.95598 -60.11888,-35.0994 -87.86226,-23.8066 -181.308087,10.10546 -255.235847,57.779 -40.7995,24.19873 -73.933903,57.56947 -103.498103,93.41841 -3.0496,-70.86511 36.151703,-149.17904 89.278403,-200.69657 35.6771002,-26.52085 62.2903,-63.93659 73.4388,-107.81814 23.8498,-95.70745 120.085707,-140.22394 199.976467,-182.87689 13.65765,-1.00065 34.44671,-34.26712 41.57941,-12.77977 27.81761,18.24834 53.94775,-18.48979 75.2387,-32.03945 36.51041,-38.58321 84.03485,-61.69854 134.45771,-75.59874 10.70772,15.2074 34.47856,25.1243 53.2791,12.7798 15.63306,-12.9556 9.7897,3.9326 12.05979,16.01974 2.04996,43.15544 30.52294,-12.03064 46.61921,-22.49964 26.90247,-20.590305 42.99168,-62.128105 80.63862,-63.718905 1.76604,-0.117 3.62769,-0.1689 5.3999,-0.18 z"
       id="path2397"
       style="fill:#ffffff;fill-opacity:1;stroke:none;display:inline" />
    <path
       d="m -237.30925,1069.897 52.83458,0 70.6226,201.1826 1.08151,0 70.08854,-201.1826 53.376604,0 0,379.943 -54.992924,0 0,-231.0559 -1.08153,0 -54.45096,163.294 -27.49496,0 -53.91844,-163.294 -1.08231,0 0,231.0559 -54.99212,0 0,-379.943"
       id="path1495"
       style="fill:#ffffff;fill-opacity:1;stroke:none;display:inline" />
    <path
       d="m 245.24343,1364.4635 c 0,49.6291 -39.89496,88.584 -88.95724,88.584 -49.0631,0 -88.967476,-38.9549 -88.967476,-88.584 l 0,-294.5665 54.999976,0 0,289.2335 c 0,26.681 14.55602,39.4881 33.96511,39.4881 19.40205,0 33.96518,-12.8071 33.96518,-39.4881 l 0,-289.2335 54.99288,0 0,294.5665"
       id="path1497"
       style="fill:#ffffff;fill-opacity:1;stroke:none;display:inline" />
    <path
       d="m 299.70383,1069.897 52.82752,0 83.03286,228.9225 1.07444,0 0,-228.9225 55.00074,0 0,379.943 -51.76169,0 -84.11434,-228.3895 -1.07444,0 0,228.3895 -54.99213,0 0,-379.943"
       id="path1499"
       style="fill:#ffffff;fill-opacity:1;stroke:none;display:inline" />
    <path
       d="m 547.70678,1449.84 55.00074,0 0,-379.943 -55.00074,0 0,379.943 z"
       id="path1501"
       style="fill:#ffffff;fill-opacity:1;stroke:none;display:inline" />
    <path
       d="m 658.78276,1069.897 52.84399,0 83.02271,228.9225 1.08237,0 0,-228.9225 54.98502,0 0,379.943 -51.75395,0 -84.11275,-228.3895 -1.08231,0 0,228.3895 -54.98508,0 0,-379.943"
       id="path1503"
       style="fill:#ffffff;fill-opacity:1;stroke:none;display:inline" />
  </g>
</svg>
